<?xml version="1.0" encoding="UTF-8" standalone="no"?>
<!-- Created with Inkscape (http://www.inkscape.org/) -->

<svg
   version="1.1"
   id="svg2"
   width="400"
   height="401.33334"
   viewBox="0 0 400 401.33334"
   sodipodi:docname="iStock-1253384179.eps"
   xmlns:inkscape="http://www.inkscape.org/namespaces/inkscape"
   xmlns:sodipodi="http://sodipodi.sourceforge.net/DTD/sodipodi-0.dtd"
   xmlns="http://www.w3.org/2000/svg"
   xmlns:svg="http://www.w3.org/2000/svg">
  <defs
     id="defs6" />
  <sodipodi:namedview
     id="namedview4"
     pagecolor="#ffffff"
     bordercolor="#000000"
     borderopacity="0.25"
     inkscape:showpageshadow="2"
     inkscape:pageopacity="0.0"
     inkscape:pagecheckerboard="0"
     inkscape:deskcolor="#d1d1d1" />
  <g
     id="g8"
     inkscape:groupmode="layer"
     inkscape:label="ink_ext_XXXXXX"
     transform="matrix(1.3333333,0,0,-1.3333333,0,401.33333)">
    <g
       id="g10"
       transform="scale(0.1)">
      <path
         d="M 0,9.99609 H 3000 V 3010 H 0 V 9.99609"
         style="fill:#f5ede8;fill-opacity:1;fill-rule:evenodd;stroke:none"
         id="path12" />
      <path
         d="m 1313.32,1834.37 c 45.45,42.49 113.35,101.2 164.94,125.36 73.54,34.5 47.02,-98.9 -15.03,-176.66 -5.68,-7.12 -7.14,-15.98 -4.05,-24.54 3.08,-8.58 9.85,-14.46 18.77,-16.32 13.26,-2.77 25.75,-5.61 49.73,-11.31 0.76,-0.18 1.39,-0.36 2.13,-0.6 210.11,-69.63 489.6,-197.56 400.78,-367.18 -137.82,-263.38 -427.11,-97.59 -396.17,-385.472 12.71,-118.523 20.23,-223.011 23.21,-316.57 0.23,-7.312 3.16,-13.512 8.65,-18.344 5.49,-4.82 12.02,-6.941 19.29,-6.242 443.43,42.996 790.07,416.798 790.07,871.518 0,483.59 -392.04,875.63 -875.62,875.63 -483.59,0 -875.661,-392.04 -875.661,-875.63 0,-233.54 91.45,-445.74 240.454,-602.737 5.339,-5.621 12.179,-8.332 19.921,-7.906 7.75,0.446 14.243,3.914 18.911,10.106 29.734,39.39 49.277,88.226 54.804,148.817 10.324,112.71 39.457,526.1 126.621,750.57 0.16,0.43 0.29,0.81 0.44,1.25 52.64,159.8 113.69,234.02 161.48,226.07 30.96,-5.16 28.85,-107.66 23.5,-179.29 -0.8,-10.68 4.74,-20.26 14.42,-24.89 9.64,-4.62 20.59,-2.94 28.41,4.37 z m 116.25,-325.4 c 0,-38.92 31.5,-70.43 70.41,-70.43 38.92,0 70.44,31.51 70.44,70.43 0,38.89 -31.52,70.42 -70.44,70.42 -38.91,0 -70.41,-31.53 -70.41,-70.42"
         style="fill:#1a1a1a;fill-opacity:1;fill-rule:evenodd;stroke:none"
         id="path14" />
    </g>
  </g>
</svg>
