<?xml version="1.0" standalone="no"?>
<!DOCTYPE svg PUBLIC "-//W3C//DTD SVG 20010904//EN"
 "http://www.w3.org/TR/2001/REC-SVG-20010904/DTD/svg10.dtd">
<svg version="1.0" xmlns="http://www.w3.org/2000/svg"
 width="300.000000pt" height="300.000000pt" viewBox="0 0 300.000000 300.000000"
 preserveAspectRatio="xMidYMid meet">

<g transform="translate(0.000000,300.000000) scale(0.100000,-0.100000)"
fill="#000000" stroke="none">
<path d="M1295 2705 c-248 -46 -471 -161 -645 -335 -439 -435 -485 -1115 -110
-1607 36 -47 75 -93 87 -101 21 -13 25 -12 52 17 46 49 69 136 86 326 30 325
64 554 110 736 72 285 181 489 260 489 38 0 49 -33 50 -150 0 -58 4 -111 8
-117 15 -23 44 -14 93 30 123 108 205 157 229 137 32 -26 14 -114 -41 -205
-23 -39 -33 -65 -27 -73 4 -8 62 -32 128 -53 152 -50 342 -143 420 -206 83
-68 117 -119 123 -187 4 -47 0 -62 -28 -115 -59 -110 -170 -189 -335 -236 -82
-23 -127 -48 -163 -89 -50 -57 -50 -69 -19 -494 9 -123 16 -165 27 -172 19
-12 92 -3 205 26 751 192 1133 1031 786 1725 -159 317 -442 542 -801 636 -122
32 -369 41 -495 18z"/>
<path d="M1462 1595 c-44 -19 -68 -73 -52 -120 23 -69 109 -88 161 -36 39 40
40 89 2 130 -35 36 -68 44 -111 26z"/>
</g>
</svg>
